# xmcd
#
# Track frame offsets:
# 150
# 15446
# 30236
# 47856
# 64527
# 82897
# 93846
# 108294
# 126049
# 141645
# 159135
# 175620
# 191431
# 206641
# 223379
# 237911
# 254516
# 272408
# 289267
# 307180
#
# Disc length: 4287 seconds
#
#
# Revision: 0
# Processed by: cddbd v1.5.1PL2 Copyright (c) Steve Scherf et al.
# Submitted via: FreeRIP 2.943 
#
DISCID=1410bd14
DTITLE=juliano cesar 20 mais - juliano casda
DYEAR=2005
DGENRE=sertanejo
TTITLE0=a malvada
TTITLE1=meu amor fugiu de min
TTITLE2=cowboy de coração
TTITLE3=zoiuda
TTITLE4=eu sou do meio
TTITLE5=peão apaixonado
TTITLE6=telefone mudo
TTITLE7=peao famoso
TTITLE8=goaneiro
TTITLE9=vento luminoso
TTITLE10=faz ela feliz
TTITLE11=cowboy universitario
TTITLE12=bota cintnturão e blue jeans
TTITLE13=bem ao olho da lua
TTITLE14=pedagio
TTITLE15=rumo a goiania
TTITLE16=ainda existe cowboy
TTITLE17=a mil por hora
TTITLE18=saudade country
TTITLE19=chove la fora
EXTD=
EXTT0=
EXTT1=
EXTT2=
EXTT3=
EXTT4=
EXTT5=
EXTT6=
EXTT7=
EXTT8=
EXTT9=
EXTT10=
EXTT11=
EXTT12=
EXTT13=
EXTT14=
EXTT15=
EXTT16=
EXTT17=
EXTT18=
EXTT19=
PLAYORDER=
